Coordinates
version=1
nRows=27
nColumns=19
inDegrees=yes

Units are S.I. units (second, meters, Newtons, ...)
If the header above contains a line with 'inDegrees', this indicates whether rotational values are in degrees (yes) or radians (no).

endheader
time	pelvis_tilt	pelvis_list	pelvis_rotation	pelvis_tx	pelvis_ty	pelvis_tz	hip_flexion_r	hip_adduction_r	hip_rotation_r	knee_angle_r	knee_angle_r_beta	ankle_angle_r	hip_flexion_l	hip_adduction_l	hip_rotation_l	knee_angle_l	knee_angle_l_beta	ankle_angle_l
     16.64000000	      2.57664115	      7.02983064	      2.44387115	      2.27300596	      1.04861538	      0.99684142	    -15.95203665	    -10.55993482	     -8.92349090	     45.32083277	      0.79099775	    -15.03045465	     20.52030610	      9.47444968	     -0.52685447	     18.86787357	      0.32930652	      7.43280370
     16.64666667	      2.91772015	      7.29991105	      2.15443731	      2.27355265	      1.04499055	      0.99681269	    -15.50266351	    -11.08082577	     -8.34498922	     47.45035480	      0.82816492	    -13.58827692	     20.12880461	      9.58680585	     -1.34736218	     20.02282503	      0.34946422	      7.11570121
     16.65333333	      3.29216866	      7.64615948	      1.88543067	      2.27409303	      1.04107174	      0.99673906	    -15.08270464	    -11.68492779	     -7.84557812	     49.51579332	      0.86421363	    -12.07603594	     19.72214355	      9.78250518	     -2.20558364	     21.34395774	      0.37252234	      6.77682352
     16.66000000	      3.67166237	      8.04203774	      1.62321038	      2.27457382	      1.03690620	      0.99665432	    -14.63997762	    -12.38765614	     -7.48689957	     51.53065565	      0.89937961	    -10.54167484	     19.33371719	     10.03667824	     -3.06977704	     22.81336534	      0.39816834	      6.53176591
     16.66666667	      4.13417371	      8.47240481	      1.53287215	      2.27501638	      1.03264584	      0.99636948	    -14.36074495	    -13.07296750	     -7.34029546	     53.37771023	      0.93161679	     -8.99654910	     18.90091917	     10.40503804	     -3.68256565	     24.49592649	      0.42753457	      6.50764913
     16.67333333	      4.37673141	      8.96440608	      1.33443754	      2.27530398	      1.02797937	      0.99613580	    -13.72371463	    -13.92622929	     -7.14579721	     55.27028305	      0.96464842	     -7.29398773	     18.77095091	     10.81211428	     -4.41846121	     26.33351972	      0.45960662	      6.62833232
     16.68000000	      4.91917831	      9.46018448	      1.33432066	      2.27552447	      1.02356471	      0.99572831	    -13.52953329	    -14.76770033	     -7.35339808	     56.93743756	      0.99374575	     -5.61641082	     18.33768338	     11.31658524	     -4.82244199	     28.33406713	      0.49452276	      7.13133792
     16.68666667	      5.36621804	     10.05222929	      1.33098924	      2.27569878	      1.01897028	      0.99530140	    -13.19028687	    -15.76786684	     -7.61860413	     58.58034562	      1.02241991	     -3.89759589	     18.03891416	     11.93702059	     -5.19855755	     30.45492558	      0.53153872	      7.91336494
     16.69333333	      5.19231883	     10.69841445	      1.39687973	      2.27568233	      1.01365949	      0.99480589	    -12.02592513	    -16.91667229	     -7.85169905	     60.37928159	      1.05381726	     -2.13803237	     18.47660462	     12.64357021	     -5.51179492	     32.70536913	      0.57081637	      8.85683923
     16.70000000	      5.78877627	     11.26236487	      1.46056901	      2.27557436	      1.00937418	      0.99444107	    -11.82014150	    -17.91284162	     -8.27976906	     61.82505535	      1.07905078	     -0.36458484	     18.01928520	     13.29904109	     -5.58663696	     34.94210886	      0.60985485	     10.21155278
     16.70666667	      5.66245124	     11.92128034	      1.86184957	      2.27530745	      1.00432812	      0.99369046	    -10.79166275	    -19.12137648	     -9.02299040	     63.44792110	      1.10737513	      1.48062813	     18.30302643	     14.17617374	     -5.34393318	     37.15443012	      0.64846714	     11.58108676
     16.71333333	      5.81212101	     12.51557271	      2.22003418	      2.27489289	      0.99985013	      0.99312490	    -10.04565537	    -20.23339998	     -9.73174008	     64.91529829	      1.13298569	      3.33254323	     18.19617627	     14.99464511	     -4.98034677	     39.24802832	      0.68500732	     13.13497794
     16.72000000	      5.92294469	     13.03529448	      2.65627902	      2.27428398	      0.99563305	      0.99254126	     -9.22347253	    -21.24781916	    -10.43634372	     66.32307943	      1.15755611	      5.16355357	     18.01857841	     15.77235179	     -4.44172688	     41.18558173	      0.71882401	     14.73594690
     16.72666667	      6.28295880	     13.46351746	      2.93938191	      2.27354318	      0.99204678	      0.99228305	     -8.57138307	    -22.13728933	    -10.97830661	     67.61236398	      1.18005837	      7.01992326	     17.42580265	     16.39137870	     -3.96024151	     42.86708600	      0.74817179	     16.42248616
     16.73333333	      6.10936006	     13.91033148	      3.68901919	      2.27245078	      0.98827550	      0.99149076	     -7.39874848	    -23.06260372	    -11.80872094	     68.95446647	      1.20348247	      8.68121400	     17.25137734	     17.22667379	     -2.92341075	     44.36223716	      0.77426710	     17.83744321
     16.74000000	      6.39407950	     14.15314067	      4.01193282	      2.27125723	      0.98548150	      0.99137328	     -6.49571293	    -23.67957915	    -12.14662445	     70.11575844	      1.22375084	     10.34441251	     16.43535367	     17.65323656	     -2.23306096	     45.53425663	      0.79472270	     19.34762903
     16.74666667	      6.19880714	     14.40945455	      4.74630700	      2.26977448	      0.98259579	      0.99075415	     -5.12306741	    -24.32371613	    -12.69781106	     71.29760436	      1.24437794	     11.79556730	     15.96943768	     18.24543534	     -1.12989580	     46.51247687	      0.81179586	     20.58104804
     16.75333333	      6.28347172	     14.49989070	      5.15477204	      2.26824371	      0.98054031	      0.99064414	     -3.85861802	    -24.69950052	    -12.84670938	     72.30323595	      1.26192953	     13.19905278	     15.05626123	     18.49619199	     -0.31815298	     47.15991461	      0.82309578	     21.84799460
     16.76000000	      6.39693061	     14.51444319	      5.50887744	      2.26650580	      0.97900620	      0.99060336	     -2.52142966	    -24.92925093	    -12.81991722	     73.19722279	      1.27753254	     14.40292900	     13.98943137	     18.62276384	      0.46268830	     47.56059534	      0.83008898	     22.94801155
     16.76666667	      6.56903468	     14.43839742	      5.77263107	      2.26466799	      0.97806461	      0.99072556	     -1.15619645	    -25.00154958	    -12.65387783	     73.94667530	      1.29061295	     15.37896154	     12.74777045	     18.60311406	      1.20770659	     47.72036902	      0.83287756	     23.80914389
     16.77333333	      6.65968982	     14.30524026	      6.00543173	      2.26285585	      0.97751615	      0.99086826	      0.34210215	    -24.96163470	    -12.37370910	     74.54739854	      1.30109755	     16.28807427	     11.47877768	     18.48191636	      1.88295730	     47.64960493	      0.83164249	     24.64756123
     16.78000000	      6.41476603	     14.11154856	      5.91155682	      2.26099833	      0.97691374	      0.99142986	      2.53296507	    -24.77379998	    -11.45529823	     75.14182824	      1.31147231	     17.05408994	     10.58658823	     18.18580796	      2.01216560	     47.39783185	      0.82724822	     25.35257366
     16.78666667	      6.46437208	     13.82278428	      5.87117335	      2.25923452	      0.97721527	      0.99190636	      4.24478288	    -24.40109250	    -10.78028097	     75.42985117	      1.31649926	     17.68500690	      9.23864999	     17.78793225	      2.34172649	     46.94054555	      0.81926707	     25.93536528
     16.79333333	      6.47410089	     13.50444945	      5.99110173	      2.25763676	      0.97796654	      0.99217301	      5.82984050	    -23.99122029	    -10.36734403	     75.48245160	      1.31741731	     18.20749298	      7.82122195	     17.39162359	      2.87784240	     46.33601912	      0.80871610	     26.38769700
     16.80000000	      6.57443308	     13.05268404	      5.54698028	      2.25616826	      0.97912356	      0.99313438	      7.59211678	    -23.25964211	     -9.32806500	     75.39021233	      1.31580743	     18.62164615	      6.35482554	     16.70395309	      2.73376374	     45.56089351	      0.79518760	     26.74326901
     16.80666667	      6.45373654	     12.61043510	      5.58343316	      2.25482497	      0.98054581	      0.99347428	      9.25405875	    -22.60417135	     -8.86344212	     75.06846092	      1.31019181	     18.95058554	      4.99742631	     16.16506575	      3.18148085	     44.70869027	      0.78031385	     26.92577210
     16.81333333	      6.50259140	     12.00291771	      5.17412961	      2.25377656	      0.98247743	      0.99437561	     10.83974977	    -21.60779235	     -8.03981000	     74.53172315	      1.30082397	     19.19257379	      3.48125574	     15.32471642	      3.06077389	     43.71327174	      0.76294052	     26.97186007
